<svg width="32" height="32" viewBox="0 0 32 32" fill="#FFF" xmlns="http://www.w3.org/2000/svg">
<path fill-rule="evenodd" clip-rule="evenodd" d="M9.39299 7.82427C9.00247 7.43374 8.3693 7.43374 7.97878 7.82427C7.58825 8.21479 7.58825 8.84795 7.97878 9.23848L14.6298 15.8895L7.75774 22.7616C7.36721 23.1521 7.36721 23.7853 7.75774 24.1758C8.14826 24.5664 8.78143 24.5664 9.17195 24.1758L16.044 17.3037L22.828 24.0877C23.2185 24.4782 23.8517 24.4782 24.2422 24.0877C24.6328 23.6972 24.6328 23.064 24.2422 22.6735L17.4583 15.8895L24.0212 9.32659C24.4117 8.93606 24.4117 8.3029 24.0212 7.91237C23.6307 7.52185 22.9975 7.52185 22.607 7.91237L16.044 14.4753L9.39299 7.82427Z" fill="#FFF"/>
</svg>
